<svg width="375" height="446" xmlns="http://www.w3.org/2000/svg" xmlns:xlink="http://www.w3.org/1999/xlink" overflow="hidden"><defs><clipPath id="clip0"><rect x="258" y="200" width="375" height="446"/></clipPath><clipPath id="clip1"><rect x="293" y="212" width="62" height="42"/></clipPath><clipPath id="clip2"><rect x="293" y="212" width="62" height="43"/></clipPath><clipPath id="clip3"><rect x="293" y="202" width="62" height="62"/></clipPath><clipPath id="clip4"><rect x="350" y="326" width="33" height="34"/></clipPath><clipPath id="clip5"><rect x="350" y="326" width="33" height="34"/></clipPath><clipPath id="clip6"><rect x="349" y="326" width="35" height="34"/></clipPath><clipPath id="clip7"><rect x="349" y="326" width="35" height="34"/></clipPath><clipPath id="clip8"><rect x="349" y="326" width="34" height="34"/></clipPath><clipPath id="clip9"><rect x="349" y="326" width="34" height="34"/></clipPath><clipPath id="clip10"><rect x="349" y="326" width="34" height="34"/></clipPath><clipPath id="clip11"><rect x="349" y="326" width="34" height="34"/></clipPath><clipPath id="clip12"><rect x="350" y="431" width="33" height="33"/></clipPath><clipPath id="clip13"><rect x="350" y="431" width="33" height="33"/></clipPath><clipPath id="clip14"><rect x="349" y="431" width="35" height="33"/></clipPath><clipPath id="clip15"><rect x="349" y="431" width="35" height="33"/></clipPath><clipPath id="clip16"><rect x="384" y="537" width="33" height="34"/></clipPath><clipPath id="clip17"><rect x="384" y="537" width="33" height="34"/></clipPath><clipPath id="clip18"><rect x="383" y="537" width="35" height="34"/></clipPath><clipPath id="clip19"><rect x="383" y="537" width="35" height="34"/></clipPath><clipPath id="clip20"><rect x="383" y="537" width="34" height="34"/></clipPath><clipPath id="clip21"><rect x="383" y="537" width="34" height="34"/></clipPath><clipPath id="clip22"><rect x="383" y="537" width="34" height="34"/></clipPath><clipPath id="clip23"><rect x="383" y="537" width="34" height="34"/></clipPath></defs><g clip-path="url(#clip0)" transform="translate(-258 -200)"><rect x="259" y="201" width="373" height="444" fill="#FFFFFF"/><path d="M301.475 219.493 559.475 219.493 559.475 317.493 301.475 317.493Z" stroke="#262261" stroke-width="1.33333" stroke-miterlimit="8" fill="#FFFFFF" fill-rule="evenodd"/><text font-family="Consolas,Consolas_MSFontService,sans-serif" font-weight="400" font-size="24" transform="translate(358.545 242)">net-<tspan font-size="24" x="52.6667" y="0">monitor:</tspan><tspan font-size="24" x="158" y="0">v1</tspan></text><path d="M346.349 211.992 359.438 221.436C359.621 229.886 359.793 238.335 359.977 246.785L302.524 253.992 291.031 246.039C290.848 237.424 291.203 227.815 291.031 219.199L346.349 211.992Z" fill="#FFFFFF" fill-rule="evenodd"/><g clip-path="url(#clip1)"><g clip-path="url(#clip2)"><g clip-path="url(#clip3)"><path d="M60.7237 43.3278 60.1416 23.1513 12.3517 29.6181 12.869 50.0534 60.7237 43.3278ZM57.0376 27.4841 57.4256 40.0944 53.9335 40.6118 53.5455 28.0014 57.0376 27.4841ZM48.178 28.7128 48.566 41.3231 45.0739 41.8405 44.6859 29.2301 48.178 28.7128ZM39.3184 29.9415 39.7064 42.5518 36.2143 43.0692 35.8263 30.4588 39.3184 29.9415ZM30.4588 31.2348 30.8468 43.8452 27.3547 44.3625 26.9667 31.6875 30.4588 31.2348ZM21.5993 32.4636 21.9873 45.0739 18.4952 45.5912 18.1072 32.9809 21.5993 32.4636Z" fill="#262261" transform="matrix(1.01346 0 0 1 293 202.412)"/><path d="M0.905358 41.9051 9.05358 47.79 8.6009 28.9715 0.323342 23.0866Z" fill="#262261" transform="matrix(1.01346 0 0 1 293 202.412)"/><path d="M58.6543 19.5299 48.566 12.3517 1.16403 19.0125 10.929 25.9967Z" fill="#262261" transform="matrix(1.01346 0 0 1 293 202.412)"/></g></g></g><text font-family="Calibri,Calibri_MSFontService,sans-serif" font-weight="700" font-size="14" transform="translate(339.09 290)">layer1 (blob)<tspan font-size="14" x="-0.859833" y="22">layer2 (blob)</tspan></text><path d="M332.97 286.132 324.167 286.132 324.167 254.5 324.833 254.5 324.833 285.798 324.5 285.465 332.97 285.465ZM331.637 281.798 339.637 285.798 331.637 289.798Z" fill="#4472C4"/><path d="M332.11 308.127 324.167 308.127 324.167 254.5 324.833 254.5 324.833 307.793 324.5 307.46 332.11 307.46ZM330.777 303.793 338.777 307.793 330.777 311.793Z" fill="#4472C4"/><text font-family="Calibri,Calibri_MSFontService,sans-serif" font-weight="700" font-size="14" transform="translate(338.23 269)">config (blob)</text><path d="M332.11 265.083 324.167 265.083 324.167 254.5 324.833 254.5 324.833 264.749 324.5 264.416 332.11 264.416ZM330.777 260.749 338.777 264.749 330.777 268.749Z" fill="#4472C4"/><path d="M358.478 333.494 588.478 333.494 588.478 424.494 358.478 424.494Z" stroke="#262261" stroke-width="1.33333" stroke-miterlimit="8" fill="#FFFFFF" fill-rule="evenodd"/><g clip-path="url(#clip4)"><g clip-path="url(#clip5)"><g clip-path="url(#clip6)"><g clip-path="url(#clip7)"><path d="M183.22 267.906 217.307 267.906 217.307 299.862 183.22 299.862Z" fill="#FFFFFF" transform="matrix(1 0 0 1.02961 166.237 50.1613)"/><g clip-path="url(#clip8)"><g clip-path="url(#clip9)"><g clip-path="url(#clip10)"><g clip-path="url(#clip11)"><path d="M20.3529 16.8296 17.7875 14.572 9.64624 24.5944 12.2459 26.818Z" fill="#262261" transform="matrix(1.02048 0 0 1 349.456 326.82)"/><path d="M9.8515 27.4678 8.48322 26.3732 7.73067 29.6913 10.8093 28.2887Z" fill="#262261" transform="matrix(1.02048 0 0 1 349.456 326.82)"/><path d="M28.2887 1.64191 30.8885 3.86535 32.2568 2.18923 29.5886 0.0342066Z" fill="#262261" transform="matrix(1.02048 0 0 1 349.456 326.82)"/><path d="M23.1919 16.3507 24.7998 17.6506 28.8704 12.6564C30.2386 11.0829 30.8885 9.09895 30.5806 7.45702 30.4439 6.70447 30.1018 6.05458 29.6229 5.50723L27.0231 3.24963 19.0531 12.9985 21.6528 15.2561 28.2546 7.11494C28.3915 7.3202 28.494 7.55963 28.5282 7.83333 28.7335 8.85952 28.2204 10.2277 27.2967 11.3224L23.1919 16.3507Z" fill="#262261" transform="matrix(1.02048 0 0 1 349.456 326.82)"/><path d="M1.74453 26.7153C1.81295 26.5442 1.88136 26.3732 1.98399 26.2022 2.18923 25.8602 2.42867 25.5865 2.73652 25.3128 3.31803 24.7656 4.07058 24.3208 4.85732 23.9103 5.64405 23.4999 6.46505 23.1237 7.3202 22.7132 7.73067 22.5079 8.17535 22.2684 8.62004 21.9605 8.85952 21.8238 9.06473 21.6528 9.30416 21.4133 9.54364 21.1739 9.78306 20.9001 9.91988 20.4555 10.0909 20.045 10.0567 19.4977 9.91988 19.1215 9.78306 18.711 9.50942 18.4031 9.26999 18.1636 8.75686 17.719 8.27796 17.4796 7.83333 17.2401 6.9439 16.7953 6.08874 16.5218 5.30202 16.1455 4.54947 15.7692 3.89955 15.3587 3.52327 14.8114 3.147 14.2983 3.01018 13.6142 3.11279 12.8617 3.21541 12.0749 3.45487 11.3224 3.86535 10.6724 4.72051 9.37259 6.32822 8.51744 8.03853 8.03853 8.89369 7.79911 9.78306 7.62806 10.7067 7.52541 11.1513 7.45702 11.6302 7.4228 12.0749 7.38864 12.5196 7.35442 12.9985 7.3202 13.4774 7.3202 11.6302 6.84129 9.71468 6.73869 7.79911 6.97812 6.84129 7.11494 5.88354 7.35442 4.95995 7.76489 4.03637 8.17535 3.1812 8.79108 2.49708 9.64624 2.15501 10.0567 1.88136 10.5356 1.67612 11.0145 1.47088 11.5276 1.33406 12.0065 1.23144 12.5538 1.12882 13.1011 1.12882 13.6484 1.19723 14.2299 1.29985 14.8114 1.50509 15.393 1.84715 15.906 2.18923 16.4191 2.59971 16.7953 3.04439 17.1375 3.48907 17.4796 3.93375 17.719 4.37843 17.9585 5.2678 18.4031 6.15718 18.7451 6.9439 19.0872 7.3202 19.2582 7.66228 19.4635 7.86749 19.6346 7.97009 19.703 8.00431 19.7714 8.00431 19.8055 8.00431 19.8399 8.00431 19.8055 8.00431 19.8055 8.00431 19.8055 7.97009 19.9082 7.86749 20.0109 7.76489 20.1135 7.62806 20.216 7.49124 20.3529 7.18338 20.5924 6.80713 20.7975 6.43083 21.037 5.64405 21.4817 4.82312 21.9264 4.00216 22.4053 3.1812 22.9184 2.36025 23.4999 1.67612 24.2867 1.33406 24.6629 1.0262 25.1418 0.820957 25.6207 0.718338 25.8602 0.615718 26.1338 0.58151 26.4075 0.513098 26.6811 0.513098 26.9206 0.478891 27.16 0.444684 27.6731 0.444684 28.1862 0.615718 28.7335 0.752541 29.2466 1.0604 29.7597 1.50509 30.1018 1.94977 30.4439 2.46287 30.6149 2.94176 30.6833 3.45487 30.7516 3.93375 30.7516 4.41264 30.6833 5.37043 30.5806 6.25978 30.307 7.11494 29.965 6.1914 30.136 5.2678 30.2386 4.37843 30.2044 3.93375 30.1701 3.48907 30.136 3.07859 29.9991 2.66811 29.8965 2.29184 29.6913 2.05239 29.4176 1.5393 28.9046 1.47088 28.0836 1.64191 27.2626 1.64191 27.1257 1.71032 26.8863 1.74453 26.7153Z" fill="#262261" transform="matrix(1.02048 0 0 1 349.456 326.82)"/></g></g></g></g></g></g></g></g><text font-family="Consolas,Consolas_MSFontService,sans-serif" font-weight="400" font-size="14" transform="translate(386.161 346)">Wabbit Networks<tspan font-size="14" x="122.667" y="0">signature</tspan><tspan font-family="Calibri,Calibri_MSFontService,sans-serif" font-weight="700" font-size="14" x="21.0436" y="22">config (blob)</tspan><tspan font-family="Calibri,Calibri_MSFontService,sans-serif" font-weight="700" font-size="14" x="20.1837" y="46">signature (blob)</tspan></text><path d="M401.472 363.868 375.167 363.868 375.167 358.5 375.833 358.5 375.833 363.535 375.5 363.201 401.472 363.201ZM400.138 359.535 408.138 363.535 400.138 367.535Z" fill="#4472C4"/><path d="M400.612 387.863 375.167 387.863 375.167 358.5 375.833 358.5 375.833 387.53 375.5 387.196 400.612 387.196ZM399.279 383.53 407.279 387.53 399.279 391.53Z" fill="#4472C4"/><text font-family="Calibri,Calibri_MSFontService,sans-serif" font-weight="700" font-size="14" transform="translate(406.414 415)">reference (manifest)</text><path d="M406.958 411.52 269.167 411.52 269.167 233.167 286.833 233.167 286.833 233.833 269.5 233.833 269.834 233.5 269.834 411.187 269.5 410.854 406.958 410.854ZM285.5 229.5 293.5 233.5 285.5 237.5Z" fill="#4472C4"/><path d="M358.478 438.494 588.478 438.494 588.478 529.494 358.478 529.494Z" stroke="#262261" stroke-width="1.33333" stroke-miterlimit="8" fill="#FFFFFF" fill-rule="evenodd"/><g clip-path="url(#clip12)"><g clip-path="url(#clip13)"><g clip-path="url(#clip14)"><g clip-path="url(#clip15)"><path d="M0 0 24.4444 0 24.4444 17.6428C12.2222 17.6428 12.2222 24.365 0 20.5456Z" stroke="#262261" stroke-width="0.814813" stroke-miterlimit="8" fill="#FFFFFF" fill-rule="evenodd" transform="matrix(-1.002 0 0 1 379.359 436.806)"/><text font-family="Calibri,Calibri_MSFontService,sans-serif" font-weight="400" font-size="19" transform="matrix(0.612337 0 0 0.611111 355.905 445)">S<tspan font-size="19" x="7.41523" y="4.90909">B</tspan><tspan font-size="19" x="15.6819" y="9.81818">o</tspan><tspan font-size="16" x="22.0859" y="18">M</tspan></text></g></g></g></g><text font-family="Consolas,Consolas_MSFontService,sans-serif" font-weight="400" font-size="14" transform="translate(386.161 451)">SBoM<tspan font-size="14" x="38.3333" y="0">Document</tspan><tspan font-family="Calibri,Calibri_MSFontService,sans-serif" font-weight="700" font-size="14" x="21.0436" y="21">config (blob)</tspan><tspan font-family="Calibri,Calibri_MSFontService,sans-serif" font-weight="700" font-size="14" x="20.1837" y="45">signature (blob)</tspan></text><path d="M401.472 468.868 375.167 468.868 375.167 463.5 375.833 463.5 375.833 468.535 375.5 468.201 401.472 468.201ZM400.138 464.535 408.138 468.535 400.138 472.535Z" fill="#4472C4"/><path d="M400.612 492.863 375.167 492.863 375.167 463.5 375.833 463.5 375.833 492.53 375.5 492.196 400.612 492.196ZM399.279 488.53 407.279 492.53 399.279 496.53Z" fill="#4472C4"/><text font-family="Calibri,Calibri_MSFontService,sans-serif" font-weight="700" font-size="14" transform="translate(406.414 520)">reference (manifest)</text><path d="M406.958 516.189 269.167 516.189 269.167 233.167 286.833 233.167 286.833 233.833 269.5 233.833 269.834 233.5 269.834 515.855 269.5 515.522 406.958 515.522ZM285.5 229.5 293.5 233.5 285.5 237.5Z" fill="#4472C4"/><path d="M392.478 544.494 622.478 544.494 622.478 635.494 392.478 635.494Z" stroke="#262261" stroke-width="1.33333" stroke-miterlimit="8" fill="#FFFFFF" fill-rule="evenodd"/><g clip-path="url(#clip16)"><g clip-path="url(#clip17)"><g clip-path="url(#clip18)"><g clip-path="url(#clip19)"><path d="M183.22 267.906 217.307 267.906 217.307 299.862 183.22 299.862Z" fill="#FFFFFF" transform="matrix(1 0 0 1.02961 200.237 261.161)"/><g clip-path="url(#clip20)"><g clip-path="url(#clip21)"><g clip-path="url(#clip22)"><g clip-path="url(#clip23)"><path d="M20.3529 16.8296 17.7875 14.572 9.64624 24.5944 12.2459 26.818Z" fill="#262261" transform="matrix(1.02048 0 0 1 383.456 537.82)"/><path d="M9.8515 27.4678 8.48322 26.3732 7.73067 29.6913 10.8093 28.2887Z" fill="#262261" transform="matrix(1.02048 0 0 1 383.456 537.82)"/><path d="M28.2887 1.64191 30.8885 3.86535 32.2568 2.18923 29.5886 0.0342066Z" fill="#262261" transform="matrix(1.02048 0 0 1 383.456 537.82)"/><path d="M23.1919 16.3507 24.7998 17.6506 28.8704 12.6564C30.2386 11.0829 30.8885 9.09895 30.5806 7.45702 30.4439 6.70447 30.1018 6.05458 29.6229 5.50723L27.0231 3.24963 19.0531 12.9985 21.6528 15.2561 28.2546 7.11494C28.3915 7.3202 28.494 7.55963 28.5282 7.83333 28.7335 8.85952 28.2204 10.2277 27.2967 11.3224L23.1919 16.3507Z" fill="#262261" transform="matrix(1.02048 0 0 1 383.456 537.82)"/><path d="M1.74453 26.7153C1.81295 26.5442 1.88136 26.3732 1.98399 26.2022 2.18923 25.8602 2.42867 25.5865 2.73652 25.3128 3.31803 24.7656 4.07058 24.3208 4.85732 23.9103 5.64405 23.4999 6.46505 23.1237 7.3202 22.7132 7.73067 22.5079 8.17535 22.2684 8.62004 21.9605 8.85952 21.8238 9.06473 21.6528 9.30416 21.4133 9.54364 21.1739 9.78306 20.9001 9.91988 20.4555 10.0909 20.045 10.0567 19.4977 9.91988 19.1215 9.78306 18.711 9.50942 18.4031 9.26999 18.1636 8.75686 17.719 8.27796 17.4796 7.83333 17.2401 6.9439 16.7953 6.08874 16.5218 5.30202 16.1455 4.54947 15.7692 3.89955 15.3587 3.52327 14.8114 3.147 14.2983 3.01018 13.6142 3.11279 12.8617 3.21541 12.0749 3.45487 11.3224 3.86535 10.6724 4.72051 9.37259 6.32822 8.51744 8.03853 8.03853 8.89369 7.79911 9.78306 7.62806 10.7067 7.52541 11.1513 7.45702 11.6302 7.4228 12.0749 7.38864 12.5196 7.35442 12.9985 7.3202 13.4774 7.3202 11.6302 6.84129 9.71468 6.73869 7.79911 6.97812 6.84129 7.11494 5.88354 7.35442 4.95995 7.76489 4.03637 8.17535 3.1812 8.79108 2.49708 9.64624 2.15501 10.0567 1.88136 10.5356 1.67612 11.0145 1.47088 11.5276 1.33406 12.0065 1.23144 12.5538 1.12882 13.1011 1.12882 13.6484 1.19723 14.2299 1.29985 14.8114 1.50509 15.393 1.84715 15.906 2.18923 16.4191 2.59971 16.7953 3.04439 17.1375 3.48907 17.4796 3.93375 17.719 4.37843 17.9585 5.2678 18.4031 6.15718 18.7451 6.9439 19.0872 7.3202 19.2582 7.66228 19.4635 7.86749 19.6346 7.97009 19.703 8.00431 19.7714 8.00431 19.8055 8.00431 19.8399 8.00431 19.8055 8.00431 19.8055 8.00431 19.8055 7.97009 19.9082 7.86749 20.0109 7.76489 20.1135 7.62806 20.216 7.49124 20.3529 7.18338 20.5924 6.80713 20.7975 6.43083 21.037 5.64405 21.4817 4.82312 21.9264 4.00216 22.4053 3.1812 22.9184 2.36025 23.4999 1.67612 24.2867 1.33406 24.6629 1.0262 25.1418 0.820957 25.6207 0.718338 25.8602 0.615718 26.1338 0.58151 26.4075 0.513098 26.6811 0.513098 26.9206 0.478891 27.16 0.444684 27.6731 0.444684 28.1862 0.615718 28.7335 0.752541 29.2466 1.0604 29.7597 1.50509 30.1018 1.94977 30.4439 2.46287 30.6149 2.94176 30.6833 3.45487 30.7516 3.93375 30.7516 4.41264 30.6833 5.37043 30.5806 6.25978 30.307 7.11494 29.965 6.1914 30.136 5.2678 30.2386 4.37843 30.2044 3.93375 30.1701 3.48907 30.136 3.07859 29.9991 2.66811 29.8965 2.29184 29.6913 2.05239 29.4176 1.5393 28.9046 1.47088 28.0836 1.64191 27.2626 1.64191 27.1257 1.71032 26.8863 1.74453 26.7153Z" fill="#262261" transform="matrix(1.02048 0 0 1 383.456 537.82)"/></g></g></g></g></g></g></g></g><text font-family="Consolas,Consolas_MSFontService,sans-serif" font-weight="400" font-size="14" transform="translate(420.396 557)">Wabbit Networks<tspan font-size="14" x="122.667" y="0">signature</tspan><tspan font-family="Calibri,Calibri_MSFontService,sans-serif" font-weight="700" font-size="14" x="21.0436" y="22">config (blob)</tspan><tspan font-family="Calibri,Calibri_MSFontService,sans-serif" font-weight="700" font-size="14" x="20.1837" y="46">signature (blob)</tspan></text><path d="M435.472 574.868 409.167 574.868 409.167 569.5 409.833 569.5 409.833 574.535 409.5 574.201 435.472 574.201ZM434.138 570.535 442.138 574.535 434.138 578.535Z" fill="#4472C4"/><path d="M434.612 598.863 409.167 598.863 409.167 569.5 409.833 569.5 409.833 598.53 409.5 598.196 434.612 598.196ZM433.279 594.53 441.279 598.53 433.279 602.53Z" fill="#4472C4"/><text font-family="Calibri,Calibri_MSFontService,sans-serif" font-weight="700" font-size="14" transform="translate(440.648 626)">reference (manifest)</text><path d="M441.578 622.279 326.167 622.279 326.167 447.167 343.833 447.167 343.833 447.833 326.5 447.833 326.833 447.5 326.833 621.945 326.5 621.612 441.578 621.612ZM342.5 443.5 350.5 447.5 342.5 451.5Z" fill="#4472C4"/></g></svg>