<svg width="375" height="494" xmlns="http://www.w3.org/2000/svg" xmlns:xlink="http://www.w3.org/1999/xlink" overflow="hidden"><defs><clipPath id="clip0"><rect x="258" y="200" width="375" height="494"/></clipPath><clipPath id="clip1"><rect x="293" y="212" width="62" height="42"/></clipPath><clipPath id="clip2"><rect x="293" y="212" width="62" height="43"/></clipPath><clipPath id="clip3"><rect x="293" y="202" width="62" height="62"/></clipPath><clipPath id="clip4"><rect x="350" y="342" width="33" height="33"/></clipPath><clipPath id="clip5"><rect x="350" y="342" width="33" height="33"/></clipPath><clipPath id="clip6"><rect x="349" y="342" width="35" height="33"/></clipPath><clipPath id="clip7"><rect x="349" y="342" width="35" height="33"/></clipPath><clipPath id="clip8"><rect x="349" y="342" width="34" height="33"/></clipPath><clipPath id="clip9"><rect x="349" y="342" width="34" height="33"/></clipPath><clipPath id="clip10"><rect x="349" y="342" width="34" height="33"/></clipPath><clipPath id="clip11"><rect x="349" y="342" width="34" height="33"/></clipPath><clipPath id="clip12"><rect x="350" y="465" width="33" height="34"/></clipPath><clipPath id="clip13"><rect x="350" y="465" width="33" height="34"/></clipPath><clipPath id="clip14"><rect x="349" y="465" width="35" height="34"/></clipPath><clipPath id="clip15"><rect x="349" y="465" width="35" height="34"/></clipPath><clipPath id="clip16"><rect x="384" y="588" width="33" height="34"/></clipPath><clipPath id="clip17"><rect x="384" y="588" width="33" height="34"/></clipPath><clipPath id="clip18"><rect x="383" y="588" width="35" height="34"/></clipPath><clipPath id="clip19"><rect x="383" y="588" width="35" height="34"/></clipPath><clipPath id="clip20"><rect x="383" y="588" width="34" height="34"/></clipPath><clipPath id="clip21"><rect x="383" y="588" width="34" height="34"/></clipPath><clipPath id="clip22"><rect x="383" y="588" width="34" height="34"/></clipPath><clipPath id="clip23"><rect x="383" y="588" width="34" height="34"/></clipPath></defs><g clip-path="url(#clip0)" transform="translate(-258 -200)"><rect x="259" y="201" width="372" height="493" fill="#FFFFFF"/><path d="M301.475 219.493 559.475 219.493 559.475 317.493 301.475 317.493Z" stroke="#262261" stroke-width="1.33333" stroke-miterlimit="8" fill="#FFFFFF" fill-rule="evenodd"/><text font-family="Consolas,Consolas_MSFontService,sans-serif" font-weight="400" font-size="24" transform="translate(358.545 242)">net-<tspan font-size="24" x="52.6667" y="0">monitor:</tspan><tspan font-size="24" x="158" y="0">v1</tspan></text><path d="M346.349 211.992 359.438 221.436C359.621 229.886 359.793 238.335 359.977 246.785L302.524 253.992 291.031 246.039C290.848 237.424 291.203 227.815 291.031 219.199L346.349 211.992Z" fill="#FFFFFF" fill-rule="evenodd"/><g clip-path="url(#clip1)"><g clip-path="url(#clip2)"><g clip-path="url(#clip3)"><path d="M60.7237 43.3278 60.1416 23.1513 12.3517 29.6181 12.869 50.0534 60.7237 43.3278ZM57.0376 27.4841 57.4256 40.0944 53.9335 40.6118 53.5455 28.0014 57.0376 27.4841ZM48.178 28.7128 48.566 41.3231 45.0739 41.8405 44.6859 29.2301 48.178 28.7128ZM39.3184 29.9415 39.7064 42.5518 36.2143 43.0692 35.8263 30.4588 39.3184 29.9415ZM30.4588 31.2348 30.8468 43.8452 27.3547 44.3625 26.9667 31.6875 30.4588 31.2348ZM21.5993 32.4636 21.9873 45.0739 18.4952 45.5912 18.1072 32.9809 21.5993 32.4636Z" fill="#262261" transform="matrix(1.01346 0 0 1 293 202.412)"/><path d="M0.905358 41.9051 9.05358 47.79 8.6009 28.9715 0.323342 23.0866Z" fill="#262261" transform="matrix(1.01346 0 0 1 293 202.412)"/><path d="M58.6543 19.5299 48.566 12.3517 1.16403 19.0125 10.929 25.9967Z" fill="#262261" transform="matrix(1.01346 0 0 1 293 202.412)"/></g></g></g><text font-family="Calibri,Calibri_MSFontService,sans-serif" font-weight="700" font-size="14" transform="translate(339.09 290)">layer1 (blob)<tspan font-size="14" x="-0.859833" y="22">layer2 (blob)</tspan></text><path d="M332.97 286.132 324.167 286.132 324.167 254.5 324.833 254.5 324.833 285.798 324.5 285.465 332.97 285.465ZM331.637 281.798 339.637 285.798 331.637 289.798Z" fill="#4472C4"/><path d="M332.11 308.127 324.167 308.127 324.167 254.5 324.833 254.5 324.833 307.793 324.5 307.46 332.11 307.46ZM330.777 303.793 338.777 307.793 330.777 311.793Z" fill="#4472C4"/><text font-family="Calibri,Calibri_MSFontService,sans-serif" font-weight="700" font-size="14" transform="translate(338.23 269)">config (blob)</text><path d="M332.11 265.083 324.167 265.083 324.167 254.5 324.833 254.5 324.833 264.749 324.5 264.416 332.11 264.416ZM330.777 260.749 338.777 264.749 330.777 268.749Z" fill="#4472C4"/><path d="M358.478 349.494 588.478 349.494 588.478 440.494 358.478 440.494Z" stroke="#262261" stroke-width="1.33333" stroke-miterlimit="8" fill="#FFFFFF" fill-rule="evenodd"/><g clip-path="url(#clip4)"><g clip-path="url(#clip5)"><g clip-path="url(#clip6)"><g clip-path="url(#clip7)"><path d="M183.097 267.726 217.161 267.726 217.161 299.661 183.097 299.661Z" fill="#FFFFFF" transform="matrix(1.00067 0 0 1 166.237 74.2742)"/><g clip-path="url(#clip8)"><g clip-path="url(#clip9)"><g clip-path="url(#clip10)"><g clip-path="url(#clip11)"><path d="M19.7543 16.3346 17.2643 14.1434 9.36253 23.8711 11.8857 26.0292Z" fill="#262261" transform="matrix(1.05141 0 0 1 349.456 342.796)"/><path d="M9.56175 26.6599 8.23371 25.5975 7.5033 28.8181 10.4913 27.4567Z" fill="#262261" transform="matrix(1.05141 0 0 1 349.456 342.796)"/><path d="M27.4567 1.59362 29.98 3.75166 31.3081 2.12484 28.7184 0.0332006Z" fill="#262261" transform="matrix(1.05141 0 0 1 349.456 342.796)"/><path d="M22.5098 15.8698 24.0704 17.1315 28.0213 12.2841C29.3492 10.7569 29.98 8.83133 29.6812 7.2377 29.5485 6.50728 29.2165 5.8765 28.7516 5.34525L26.2283 3.15405 18.4927 12.6162 21.0159 14.8074 27.4236 6.90568C27.5564 7.1049 27.656 7.33728 27.6891 7.60293 27.8884 8.59895 27.3904 9.92693 26.4939 10.9894L22.5098 15.8698Z" fill="#262261" transform="matrix(1.05141 0 0 1 349.456 342.796)"/><path d="M1.69322 25.9295C1.75963 25.7635 1.82602 25.5975 1.92564 25.4316 2.12484 25.0996 2.35724 24.834 2.65603 24.5683 3.22044 24.0372 3.95086 23.6055 4.71446 23.2071 5.47805 22.8087 6.2749 22.4436 7.1049 22.0452 7.5033 21.8459 7.9349 21.6135 8.36651 21.3146 8.59895 21.182 8.79812 21.0159 9.0305 20.7835 9.26294 20.5511 9.49533 20.2854 9.62812 19.8539 9.79413 19.4555 9.76092 18.9242 9.62812 18.5591 9.49533 18.1607 9.22973 17.8618 8.99734 17.6294 8.49931 17.1979 8.03449 16.9655 7.60293 16.733 6.73967 16.3014 5.90966 16.0358 5.14608 15.6706 4.41566 15.3054 3.78486 14.907 3.41965 14.3758 3.05444 13.8778 2.92165 13.2138 3.02124 12.4834 3.12084 11.7197 3.35325 10.9894 3.75166 10.3585 4.58167 9.09693 6.1421 8.26693 7.8021 7.8021 8.63211 7.56972 9.49533 7.40371 10.3918 7.30407 10.8234 7.2377 11.2881 7.20449 11.7197 7.17133 12.1513 7.13811 12.6162 7.1049 13.081 7.1049 11.2881 6.64008 9.42895 6.54049 7.56972 6.77288 6.64008 6.90568 5.71049 7.13811 4.81407 7.53651 3.91765 7.9349 3.08764 8.53252 2.42363 9.36253 2.09163 9.76092 1.82602 10.2257 1.62682 10.6906 1.42762 11.1885 1.29482 11.6534 1.19522 12.1846 1.09562 12.7158 1.09562 13.247 1.16202 13.8114 1.26162 14.3758 1.46082 14.9402 1.79283 15.4382 2.12484 15.9362 2.52324 16.3014 2.95485 16.6335 3.38645 16.9655 3.81805 17.1979 4.24966 17.4303 5.11287 17.8618 5.97609 18.1938 6.73967 18.5258 7.1049 18.6918 7.43692 18.8911 7.63609 19.0571 7.73568 19.1235 7.76889 19.1899 7.76889 19.223 7.76889 19.2564 7.76889 19.223 7.76889 19.223 7.76889 19.223 7.73568 19.3226 7.63609 19.4223 7.53651 19.5219 7.40371 19.6214 7.27091 19.7543 6.9721 19.9867 6.60692 20.1858 6.24168 20.4183 5.47805 20.8499 4.68126 21.2815 3.88445 21.7463 3.08764 22.2443 2.29083 22.8087 1.62682 23.5724 1.29482 23.9375 0.996015 24.4023 0.796812 24.8672 0.69721 25.0996 0.597609 25.3651 0.564407 25.6308 0.498007 25.8964 0.498007 26.1288 0.464806 26.3612 0.431605 26.8592 0.431605 27.3572 0.597609 27.8884 0.730407 28.3864 1.02921 28.8844 1.46082 29.2165 1.89242 29.5485 2.39043 29.7144 2.85523 29.7809 3.35325 29.8472 3.81805 29.8472 4.28286 29.7809 5.21247 29.6812 6.07567 29.4156 6.90568 29.0836 6.0093 29.2496 5.11287 29.3492 4.24966 29.316 3.81805 29.2828 3.38645 29.2496 2.98804 29.1168 2.58964 29.0172 2.22443 28.8181 1.99203 28.5523 1.49402 28.0544 1.42762 27.2576 1.59362 26.4608 1.59362 26.3279 1.66002 26.0955 1.69322 25.9295Z" fill="#262261" transform="matrix(1.05141 0 0 1 349.456 342.796)"/></g></g></g></g></g></g></g></g><text font-family="Consolas,Consolas_MSFontService,sans-serif" font-weight="400" font-size="14" transform="translate(386.161 362)">Wabbit Networks<tspan font-size="14" x="122.667" y="0">signature</tspan><tspan font-family="Calibri,Calibri_MSFontService,sans-serif" font-weight="700" font-size="14" x="21.0436" y="22">config (blob)</tspan><tspan font-family="Calibri,Calibri_MSFontService,sans-serif" font-weight="700" font-size="14" x="20.1837" y="46">signature (blob)</tspan></text><path d="M401.472 379.814 375.167 379.814 375.167 377.5 375.833 377.5 375.833 379.481 375.5 379.148 401.472 379.148ZM400.138 375.481 408.138 379.481 400.138 383.481Z" fill="#4472C4"/><path d="M400.612 403.809 375.167 403.809 375.167 377.5 375.833 377.5 375.833 403.476 375.5 403.143 400.612 403.143ZM399.279 399.476 407.279 403.476 399.279 407.476Z" fill="#4472C4"/><text font-family="Calibri,Calibri_MSFontService,sans-serif" font-weight="700" font-size="14" transform="translate(406.414 431)">manifests [descriptor]</text><path d="M406.499 427.82 300 427.82 300 322.667 302 322.667 302 426.82 301 425.82 406.499 425.82ZM297 324 301 316 305 324Z" fill="#4472C4"/><path d="M358.478 472.494 588.478 472.494 588.478 563.494 358.478 563.494Z" stroke="#262261" stroke-width="1.33333" stroke-miterlimit="8" fill="#FFFFFF" fill-rule="evenodd"/><g clip-path="url(#clip12)"><g clip-path="url(#clip13)"><g clip-path="url(#clip14)"><g clip-path="url(#clip15)"><path d="M0 0 24.4933 0 24.4933 17.6781C12.2467 17.6781 12.2467 24.4138 0 20.5867Z" stroke="#262261" stroke-width="0.816444" stroke-miterlimit="8" fill="#FFFFFF" fill-rule="evenodd" transform="matrix(-1 0 0 1.02825 379.359 470.982)"/><text font-family="Calibri,Calibri_MSFontService,sans-serif" font-weight="400" font-size="19" transform="matrix(0.612337 0 0 0.629629 355.905 479)">S<tspan font-size="19" x="7.41523" y="6.35294">B</tspan><tspan font-size="19" x="15.6819" y="11.1176">o</tspan><tspan font-size="16" x="22.0859" y="19.0588">M</tspan></text></g></g></g></g><text font-family="Consolas,Consolas_MSFontService,sans-serif" font-weight="400" font-size="14" transform="translate(386.161 485)">SBoM<tspan font-size="14" x="38.3333" y="0">Document</tspan><tspan font-family="Calibri,Calibri_MSFontService,sans-serif" font-weight="700" font-size="14" x="21.0436" y="22">config (blob)</tspan><tspan font-family="Calibri,Calibri_MSFontService,sans-serif" font-weight="700" font-size="14" x="20.1837" y="46">signature (blob)</tspan></text><path d="M401.472 502.868 375.167 502.868 375.167 497.5 375.833 497.5 375.833 502.535 375.5 502.201 401.472 502.201ZM400.138 498.535 408.138 502.535 400.138 506.535Z" fill="#4472C4"/><path d="M400.612 526.863 375.167 526.863 375.167 497.5 375.833 497.5 375.833 526.53 375.5 526.196 400.612 526.196ZM399.279 522.53 407.279 526.53 399.279 530.53Z" fill="#4472C4"/><text font-family="Calibri,Calibri_MSFontService,sans-serif" font-weight="700" font-size="14" transform="translate(406.414 554)">manifests [descriptor]</text><path d="M406.499 550.971 300 550.971 300 322.667 302 322.667 302 549.971 301 548.971 406.499 548.971ZM297 324 301 316 305 324Z" fill="#4472C4"/><path d="M392.478 595.494 622.478 595.494 622.478 686.494 392.478 686.494Z" stroke="#262261" stroke-width="1.33333" stroke-miterlimit="8" fill="#FFFFFF" fill-rule="evenodd"/><g clip-path="url(#clip16)"><g clip-path="url(#clip17)"><g clip-path="url(#clip18)"><g clip-path="url(#clip19)"><path d="M183.22 267.906 217.307 267.906 217.307 299.862 183.22 299.862Z" fill="#FFFFFF" transform="matrix(1 0 0 1.02961 200.237 312.161)"/><g clip-path="url(#clip20)"><g clip-path="url(#clip21)"><g clip-path="url(#clip22)"><g clip-path="url(#clip23)"><path d="M20.3529 16.8296 17.7875 14.572 9.64624 24.5944 12.2459 26.818Z" fill="#262261" transform="matrix(1.02048 0 0 1 383.456 588.82)"/><path d="M9.8515 27.4678 8.48322 26.3732 7.73067 29.6913 10.8093 28.2887Z" fill="#262261" transform="matrix(1.02048 0 0 1 383.456 588.82)"/><path d="M28.2887 1.64191 30.8885 3.86535 32.2568 2.18923 29.5886 0.0342066Z" fill="#262261" transform="matrix(1.02048 0 0 1 383.456 588.82)"/><path d="M23.1919 16.3507 24.7998 17.6506 28.8704 12.6564C30.2386 11.0829 30.8885 9.09895 30.5806 7.45702 30.4439 6.70447 30.1018 6.05458 29.6229 5.50723L27.0231 3.24963 19.0531 12.9985 21.6528 15.2561 28.2546 7.11494C28.3915 7.3202 28.494 7.55963 28.5282 7.83333 28.7335 8.85952 28.2204 10.2277 27.2967 11.3224L23.1919 16.3507Z" fill="#262261" transform="matrix(1.02048 0 0 1 383.456 588.82)"/><path d="M1.74453 26.7153C1.81295 26.5442 1.88136 26.3732 1.98399 26.2022 2.18923 25.8602 2.42867 25.5865 2.73652 25.3128 3.31803 24.7656 4.07058 24.3208 4.85732 23.9103 5.64405 23.4999 6.46505 23.1237 7.3202 22.7132 7.73067 22.5079 8.17535 22.2684 8.62004 21.9605 8.85952 21.8238 9.06473 21.6528 9.30416 21.4133 9.54364 21.1739 9.78306 20.9001 9.91988 20.4555 10.0909 20.045 10.0567 19.4977 9.91988 19.1215 9.78306 18.711 9.50942 18.4031 9.26999 18.1636 8.75686 17.719 8.27796 17.4796 7.83333 17.2401 6.9439 16.7953 6.08874 16.5218 5.30202 16.1455 4.54947 15.7692 3.89955 15.3587 3.52327 14.8114 3.147 14.2983 3.01018 13.6142 3.11279 12.8617 3.21541 12.0749 3.45487 11.3224 3.86535 10.6724 4.72051 9.37259 6.32822 8.51744 8.03853 8.03853 8.89369 7.79911 9.78306 7.62806 10.7067 7.52541 11.1513 7.45702 11.6302 7.4228 12.0749 7.38864 12.5196 7.35442 12.9985 7.3202 13.4774 7.3202 11.6302 6.84129 9.71468 6.73869 7.79911 6.97812 6.84129 7.11494 5.88354 7.35442 4.95995 7.76489 4.03637 8.17535 3.1812 8.79108 2.49708 9.64624 2.15501 10.0567 1.88136 10.5356 1.67612 11.0145 1.47088 11.5276 1.33406 12.0065 1.23144 12.5538 1.12882 13.1011 1.12882 13.6484 1.19723 14.2299 1.29985 14.8114 1.50509 15.393 1.84715 15.906 2.18923 16.4191 2.59971 16.7953 3.04439 17.1375 3.48907 17.4796 3.93375 17.719 4.37843 17.9585 5.2678 18.4031 6.15718 18.7451 6.9439 19.0872 7.3202 19.2582 7.66228 19.4635 7.86749 19.6346 7.97009 19.703 8.00431 19.7714 8.00431 19.8055 8.00431 19.8399 8.00431 19.8055 8.00431 19.8055 8.00431 19.8055 7.97009 19.9082 7.86749 20.0109 7.76489 20.1135 7.62806 20.216 7.49124 20.3529 7.18338 20.5924 6.80713 20.7975 6.43083 21.037 5.64405 21.4817 4.82312 21.9264 4.00216 22.4053 3.1812 22.9184 2.36025 23.4999 1.67612 24.2867 1.33406 24.6629 1.0262 25.1418 0.820957 25.6207 0.718338 25.8602 0.615718 26.1338 0.58151 26.4075 0.513098 26.6811 0.513098 26.9206 0.478891 27.16 0.444684 27.6731 0.444684 28.1862 0.615718 28.7335 0.752541 29.2466 1.0604 29.7597 1.50509 30.1018 1.94977 30.4439 2.46287 30.6149 2.94176 30.6833 3.45487 30.7516 3.93375 30.7516 4.41264 30.6833 5.37043 30.5806 6.25978 30.307 7.11494 29.965 6.1914 30.136 5.2678 30.2386 4.37843 30.2044 3.93375 30.1701 3.48907 30.136 3.07859 29.9991 2.66811 29.8965 2.29184 29.6913 2.05239 29.4176 1.5393 28.9046 1.47088 28.0836 1.64191 27.2626 1.64191 27.1257 1.71032 26.8863 1.74453 26.7153Z" fill="#262261" transform="matrix(1.02048 0 0 1 383.456 588.82)"/></g></g></g></g></g></g></g></g><text font-family="Consolas,Consolas_MSFontService,sans-serif" font-weight="400" font-size="14" transform="translate(420.396 608)">Wabbit Networks<tspan font-size="14" x="122.667" y="0">signature</tspan><tspan font-family="Calibri,Calibri_MSFontService,sans-serif" font-weight="700" font-size="14" x="21.0436" y="22">config (blob)</tspan><tspan font-family="Calibri,Calibri_MSFontService,sans-serif" font-weight="700" font-size="14" x="20.1837" y="46">signature (blob)</tspan></text><path d="M435.472 625.868 409.167 625.868 409.167 620.5 409.833 620.5 409.833 625.535 409.5 625.201 435.472 625.201ZM434.138 621.535 442.138 625.535 434.138 629.535Z" fill="#4472C4"/><path d="M434.612 649.863 409.167 649.863 409.167 620.5 409.833 620.5 409.833 649.53 409.5 649.196 434.612 649.196ZM433.279 645.53 441.279 649.53 433.279 653.53Z" fill="#4472C4"/><text font-family="Calibri,Calibri_MSFontService,sans-serif" font-weight="700" font-size="14" transform="translate(440.648 677)">manifests [descriptor]</text><path d="M440.98 673.891 357 673.891 357 571.667 359 571.667 359 672.891 358 671.891 440.98 671.891ZM354 573 358 565 362 573Z" fill="#4472C4"/></g></svg>