<svg width="246" height="115" xmlns="http://www.w3.org/2000/svg" xmlns:xlink="http://www.w3.org/1999/xlink" overflow="hidden"><defs><clipPath id="clip0"><rect x="757" y="259" width="246" height="115"/></clipPath><clipPath id="clip1"><rect x="760" y="259" width="62" height="43"/></clipPath><clipPath id="clip2"><rect x="760" y="259" width="62" height="43"/></clipPath><clipPath id="clip3"><rect x="760" y="249" width="62" height="63"/></clipPath></defs><g clip-path="url(#clip0)" transform="translate(-757 -259)"><path d="M768.478 267.493 998.478 267.493 998.478 373.493 768.478 373.493Z" stroke="#262261" stroke-width="1.33333" stroke-miterlimit="8" fill="#FFFFFF" fill-rule="evenodd"/><text font-family="Consolas,Consolas_MSFontService,sans-serif" font-weight="400" font-size="21" transform="translate(825.586 286)">net-<tspan font-size="21" x="46.6667" y="0">monitor:</tspan><tspan font-size="21" x="140" y="0">v1</tspan></text><path d="M813.349 258.992 826.438 268.436C826.621 276.886 826.793 285.335 826.977 293.785L769.523 300.992 758.031 293.039C757.848 284.424 758.203 274.815 758.031 266.199L813.349 258.992Z" fill="#FFFFFF" fill-rule="evenodd"/><g clip-path="url(#clip1)"><g clip-path="url(#clip2)"><g clip-path="url(#clip3)"><path d="M61.5412 43.9112 60.9514 23.463 12.518 30.0169 13.0423 50.7273 61.5412 43.9112ZM57.8055 27.8541 58.1987 40.6342 54.6596 41.1586 54.2664 28.3784 57.8055 27.8541ZM48.8266 29.0994 49.2199 41.8795 45.6808 42.4038 45.2875 29.6237 48.8266 29.0994ZM39.8478 30.3446 40.241 43.1247 36.7019 43.649 36.3087 30.8689 39.8478 30.3446ZM30.8689 31.6554 31.2622 44.4355 27.723 44.9598 27.3298 32.1142 30.8689 31.6554ZM21.8901 32.9006 22.2833 45.6808 18.7442 46.2051 18.351 33.4249 21.8901 32.9006Z" fill="#262261" transform="matrix(1 0 0 1.01021 760 249.184)"/><path d="M0.917548 42.4693 9.17548 48.4334 8.7167 29.3615 0.327696 23.3975Z" fill="#262261" transform="matrix(1 0 0 1.01021 760 249.184)"/><path d="M59.444 19.7928 49.2199 12.518 1.1797 19.2685 11.0761 26.3467Z" fill="#262261" transform="matrix(1 0 0 1.01021 760 249.184)"/></g></g></g><text font-family="Calibri,Calibri_MSFontService,sans-serif" font-weight="700" font-size="14" transform="translate(806.131 338)">layer1 (blob<tspan font-size="14" x="69.6667" y="0">) in [layers]</tspan><tspan font-size="14" x="-0.859863" y="20">layer2 (blob</tspan><tspan font-size="14" x="68.8068" y="20">) in [layers]</tspan></text><path d="M799.97 334.132 791.167 334.132 791.167 302.5 791.833 302.5 791.833 333.798 791.5 333.465 799.97 333.465ZM798.637 329.798 806.637 333.798 798.637 337.798Z" fill="#4472C4"/><path d="M799.11 354.47 791.167 354.47 791.167 302.5 791.833 302.5 791.833 354.136 791.5 353.803 799.11 353.803ZM797.777 350.136 805.777 354.136 797.777 358.136Z" fill="#4472C4"/><text font-family="Calibri,Calibri_MSFontService,sans-serif" font-weight="700" font-size="14" transform="translate(805.271 317)">config (blob)</text><path d="M799.11 313.083 791.167 313.083 791.167 302.5 791.833 302.5 791.833 312.749 791.5 312.416 799.11 312.416ZM797.777 308.749 805.777 312.749 797.777 316.749Z" fill="#4472C4"/></g></svg>