<svg width="268" height="116" xmlns="http://www.w3.org/2000/svg" xmlns:xlink="http://www.w3.org/1999/xlink" overflow="hidden"><defs><clipPath id="clip0"><rect x="11" y="188" width="268" height="116"/></clipPath><clipPath id="clip1"><rect x="14" y="189" width="62" height="43"/></clipPath><clipPath id="clip2"><rect x="14" y="189" width="62" height="44"/></clipPath><clipPath id="clip3"><rect x="14" y="179" width="62" height="63"/></clipPath></defs><g clip-path="url(#clip0)" transform="translate(-11 -188)"><path d="M22.4759 196.493 270.476 196.493 270.476 303.493 22.4759 303.493Z" stroke="#262261" stroke-width="1.33333" stroke-miterlimit="8" fill="#FFFFFF" fill-rule="evenodd"/><text font-family="Consolas,Consolas_MSFontService,sans-serif" font-weight="400" font-size="24" transform="translate(79.7125 219)">net-<tspan font-size="24" x="52.6667" y="0">monitor:</tspan>v1</text><path d="M67.3492 188.992 80.4377 198.436C80.621 206.886 80.7934 215.335 80.9768 223.785L23.5235 230.992 12.0308 223.039C11.8475 214.424 12.2033 204.815 12.0308 196.199L67.3492 188.992Z" fill="#FFFFFF" fill-rule="evenodd"/><g clip-path="url(#clip1)"><g clip-path="url(#clip2)"><g clip-path="url(#clip3)"><path d="M61.5412 43.9112 60.9514 23.463 12.518 30.0169 13.0423 50.7273 61.5412 43.9112ZM57.8055 27.8541 58.1987 40.6342 54.6596 41.1586 54.2664 28.3784 57.8055 27.8541ZM48.8266 29.0994 49.2199 41.8795 45.6808 42.4038 45.2875 29.6237 48.8266 29.0994ZM39.8478 30.3446 40.241 43.1247 36.7019 43.649 36.3087 30.8689 39.8478 30.3446ZM30.8689 31.6554 31.2622 44.4355 27.723 44.9598 27.3298 32.1142 30.8689 31.6554ZM21.8901 32.9006 22.2833 45.6808 18.7442 46.2051 18.351 33.4249 21.8901 32.9006Z" fill="#262261" transform="matrix(1 0 0 1.01021 14 179.184)"/><path d="M0.917548 42.4693 9.17548 48.4334 8.7167 29.3615 0.327696 23.3975Z" fill="#262261" transform="matrix(1 0 0 1.01021 14 179.184)"/><path d="M59.444 19.7928 49.2199 12.518 1.1797 19.2685 11.0761 26.3467Z" fill="#262261" transform="matrix(1 0 0 1.01021 14 179.184)"/></g></g></g><text font-family="Calibri,Calibri_MSFontService,sans-serif" font-weight="700" font-size="14" transform="translate(60.2573 267)">layer1 (blob)<tspan font-size="14" x="-0.859844" y="22">layer2 (blob)</tspan></text><path d="M53.9703 264.132 45.1667 264.132 45.1667 232.5 45.8334 232.5 45.8334 263.798 45.5001 263.465 53.9703 263.465ZM52.637 259.798 60.637 263.798 52.637 267.798Z" fill="#4472C4"/><path d="M53.1104 286.127 45.1667 286.127 45.1667 232.5 45.8334 232.5 45.8334 285.793 45.5001 285.46 53.1104 285.46ZM51.7771 281.793 59.7771 285.793 51.7771 289.793Z" fill="#4472C4"/><text font-family="Calibri,Calibri_MSFontService,sans-serif" font-weight="700" font-size="14" transform="translate(59.3975 246)">config (blob)</text><path d="M53.1104 243.083 45.1667 243.083 45.1667 232.5 45.8334 232.5 45.8334 242.749 45.5001 242.416 53.1104 242.416ZM51.7771 238.749 59.7771 242.749 51.7771 246.749Z" fill="#4472C4"/></g></svg>