<svg width="335" height="224" xmlns="http://www.w3.org/2000/svg" xmlns:xlink="http://www.w3.org/1999/xlink" overflow="hidden"><defs><clipPath id="clip0"><rect x="746" y="255" width="335" height="224"/></clipPath><clipPath id="clip1"><rect x="760" y="259" width="62" height="43"/></clipPath><clipPath id="clip2"><rect x="760" y="259" width="62" height="43"/></clipPath><clipPath id="clip3"><rect x="760" y="249" width="62" height="63"/></clipPath><clipPath id="clip4"><rect x="819" y="385" width="33" height="34"/></clipPath><clipPath id="clip5"><rect x="819" y="385" width="33" height="34"/></clipPath><clipPath id="clip6"><rect x="818" y="385" width="35" height="34"/></clipPath><clipPath id="clip7"><rect x="818" y="385" width="35" height="34"/></clipPath><clipPath id="clip8"><rect x="818" y="385" width="34" height="34"/></clipPath><clipPath id="clip9"><rect x="818" y="385" width="34" height="34"/></clipPath><clipPath id="clip10"><rect x="818" y="385" width="34" height="34"/></clipPath><clipPath id="clip11"><rect x="818" y="385" width="34" height="34"/></clipPath></defs><g clip-path="url(#clip0)" transform="translate(-746 -255)"><rect x="746" y="256" width="334" height="222" fill="#FFFFFF"/><path d="M768.478 267.493 998.478 267.493 998.478 373.493 768.478 373.493Z" stroke="#262261" stroke-width="1.33333" stroke-miterlimit="8" fill="#FFFFFF" fill-rule="evenodd"/><text font-family="Consolas,Consolas_MSFontService,sans-serif" font-weight="400" font-size="21" transform="translate(825.586 286)">net-<tspan font-size="21" x="46.6667" y="0">monitor:</tspan><tspan font-size="21" x="140" y="0">v1</tspan></text><path d="M813.349 258.992 826.438 268.436C826.621 276.886 826.793 285.335 826.977 293.785L769.523 300.992 758.031 293.039C757.848 284.424 758.203 274.815 758.031 266.199L813.349 258.992Z" fill="#FFFFFF" fill-rule="evenodd"/><g clip-path="url(#clip1)"><g clip-path="url(#clip2)"><g clip-path="url(#clip3)"><path d="M61.5412 43.9112 60.9514 23.463 12.518 30.0169 13.0423 50.7273 61.5412 43.9112ZM57.8055 27.8541 58.1987 40.6342 54.6596 41.1586 54.2664 28.3784 57.8055 27.8541ZM48.8266 29.0994 49.2199 41.8795 45.6808 42.4038 45.2875 29.6237 48.8266 29.0994ZM39.8478 30.3446 40.241 43.1247 36.7019 43.649 36.3087 30.8689 39.8478 30.3446ZM30.8689 31.6554 31.2622 44.4355 27.723 44.9598 27.3298 32.1142 30.8689 31.6554ZM21.8901 32.9006 22.2833 45.6808 18.7442 46.2051 18.351 33.4249 21.8901 32.9006Z" fill="#262261" transform="matrix(1 0 0 1.01021 760 249.184)"/><path d="M0.917548 42.4693 9.17548 48.4334 8.7167 29.3615 0.327696 23.3975Z" fill="#262261" transform="matrix(1 0 0 1.01021 760 249.184)"/><path d="M59.444 19.7928 49.2199 12.518 1.1797 19.2685 11.0761 26.3467Z" fill="#262261" transform="matrix(1 0 0 1.01021 760 249.184)"/></g></g></g><text font-family="Calibri,Calibri_MSFontService,sans-serif" font-weight="700" font-size="14" transform="translate(806.131 338)">layer1 (blob<tspan font-size="14" x="69.6667" y="0">) in [layers]</tspan><tspan font-size="14" x="-0.859863" y="20">layer2 (blob</tspan><tspan font-size="14" x="68.8068" y="20">) in [layers]</tspan></text><path d="M799.97 334.132 791.167 334.132 791.167 302.5 791.833 302.5 791.833 333.798 791.5 333.465 799.97 333.465ZM798.637 329.798 806.637 333.798 798.637 337.798Z" fill="#4472C4"/><path d="M799.11 354.47 791.167 354.47 791.167 302.5 791.833 302.5 791.833 354.136 791.5 353.803 799.11 353.803ZM797.777 350.136 805.777 354.136 797.777 358.136Z" fill="#4472C4"/><text font-family="Calibri,Calibri_MSFontService,sans-serif" font-weight="700" font-size="14" transform="translate(805.271 317)">config (blob)</text><path d="M799.11 313.083 791.167 313.083 791.167 302.5 791.833 302.5 791.833 312.749 791.5 312.416 799.11 312.416ZM797.777 308.749 805.777 312.749 797.777 316.749Z" fill="#4472C4"/><path d="M827.478 393.495 1057.48 393.495 1057.48 467.495 827.478 467.495Z" stroke="#262261" stroke-width="1.33333" stroke-miterlimit="8" fill="#FFFFFF" fill-rule="evenodd"/><g clip-path="url(#clip4)"><g clip-path="url(#clip5)"><g clip-path="url(#clip6)"><g clip-path="url(#clip7)"><path d="M183.22 267.906 217.307 267.906 217.307 299.862 183.22 299.862Z" fill="#FFFFFF" transform="matrix(1 0 0 1.02961 635.237 109.161)"/><g clip-path="url(#clip8)"><g clip-path="url(#clip9)"><g clip-path="url(#clip10)"><g clip-path="url(#clip11)"><path d="M20.3529 16.8296 17.7875 14.572 9.64624 24.5944 12.2459 26.818Z" fill="#262261" transform="matrix(1.02048 0 0 1 818.456 385.82)"/><path d="M9.8515 27.4678 8.48322 26.3732 7.73067 29.6913 10.8093 28.2887Z" fill="#262261" transform="matrix(1.02048 0 0 1 818.456 385.82)"/><path d="M28.2887 1.64191 30.8885 3.86535 32.2568 2.18923 29.5886 0.0342066Z" fill="#262261" transform="matrix(1.02048 0 0 1 818.456 385.82)"/><path d="M23.1919 16.3507 24.7998 17.6506 28.8704 12.6564C30.2386 11.0829 30.8885 9.09895 30.5806 7.45702 30.4439 6.70447 30.1018 6.05458 29.6229 5.50723L27.0231 3.24963 19.0531 12.9985 21.6528 15.2561 28.2546 7.11494C28.3915 7.3202 28.494 7.55963 28.5282 7.83333 28.7335 8.85952 28.2204 10.2277 27.2967 11.3224L23.1919 16.3507Z" fill="#262261" transform="matrix(1.02048 0 0 1 818.456 385.82)"/><path d="M1.74453 26.7153C1.81295 26.5442 1.88136 26.3732 1.98399 26.2022 2.18923 25.8602 2.42867 25.5865 2.73652 25.3128 3.31803 24.7656 4.07058 24.3208 4.85732 23.9103 5.64405 23.4999 6.46505 23.1237 7.3202 22.7132 7.73067 22.5079 8.17535 22.2684 8.62004 21.9605 8.85952 21.8238 9.06473 21.6528 9.30416 21.4133 9.54364 21.1739 9.78306 20.9001 9.91988 20.4555 10.0909 20.045 10.0567 19.4977 9.91988 19.1215 9.78306 18.711 9.50942 18.4031 9.26999 18.1636 8.75686 17.719 8.27796 17.4796 7.83333 17.2401 6.9439 16.7953 6.08874 16.5218 5.30202 16.1455 4.54947 15.7692 3.89955 15.3587 3.52327 14.8114 3.147 14.2983 3.01018 13.6142 3.11279 12.8617 3.21541 12.0749 3.45487 11.3224 3.86535 10.6724 4.72051 9.37259 6.32822 8.51744 8.03853 8.03853 8.89369 7.79911 9.78306 7.62806 10.7067 7.52541 11.1513 7.45702 11.6302 7.4228 12.0749 7.38864 12.5196 7.35442 12.9985 7.3202 13.4774 7.3202 11.6302 6.84129 9.71468 6.73869 7.79911 6.97812 6.84129 7.11494 5.88354 7.35442 4.95995 7.76489 4.03637 8.17535 3.1812 8.79108 2.49708 9.64624 2.15501 10.0567 1.88136 10.5356 1.67612 11.0145 1.47088 11.5276 1.33406 12.0065 1.23144 12.5538 1.12882 13.1011 1.12882 13.6484 1.19723 14.2299 1.29985 14.8114 1.50509 15.393 1.84715 15.906 2.18923 16.4191 2.59971 16.7953 3.04439 17.1375 3.48907 17.4796 3.93375 17.719 4.37843 17.9585 5.2678 18.4031 6.15718 18.7451 6.9439 19.0872 7.3202 19.2582 7.66228 19.4635 7.86749 19.6346 7.97009 19.703 8.00431 19.7714 8.00431 19.8055 8.00431 19.8399 8.00431 19.8055 8.00431 19.8055 8.00431 19.8055 7.97009 19.9082 7.86749 20.0109 7.76489 20.1135 7.62806 20.216 7.49124 20.3529 7.18338 20.5924 6.80713 20.7975 6.43083 21.037 5.64405 21.4817 4.82312 21.9264 4.00216 22.4053 3.1812 22.9184 2.36025 23.4999 1.67612 24.2867 1.33406 24.6629 1.0262 25.1418 0.820957 25.6207 0.718338 25.8602 0.615718 26.1338 0.58151 26.4075 0.513098 26.6811 0.513098 26.9206 0.478891 27.16 0.444684 27.6731 0.444684 28.1862 0.615718 28.7335 0.752541 29.2466 1.0604 29.7597 1.50509 30.1018 1.94977 30.4439 2.46287 30.6149 2.94176 30.6833 3.45487 30.7516 3.93375 30.7516 4.41264 30.6833 5.37043 30.5806 6.25978 30.307 7.11494 29.965 6.1914 30.136 5.2678 30.2386 4.37843 30.2044 3.93375 30.1701 3.48907 30.136 3.07859 29.9991 2.66811 29.8965 2.29184 29.6913 2.05239 29.4176 1.5393 28.9046 1.47088 28.0836 1.64191 27.2626 1.64191 27.1257 1.71032 26.8863 1.74453 26.7153Z" fill="#262261" transform="matrix(1.02048 0 0 1 818.456 385.82)"/></g></g></g></g></g></g></g></g><text font-family="Consolas,Consolas_MSFontService,sans-serif" font-weight="400" font-size="14" transform="translate(855.205 405)">Notary v2 <tspan font-size="14" x="76.6667" y="0">signature</tspan><tspan font-family="Calibri,Calibri_MSFontService,sans-serif" font-weight="700" font-size="14" x="20.1837" y="29">signature </tspan><tspan font-family="Calibri,Calibri_MSFontService,sans-serif" font-weight="700" font-size="14" x="77.8504" y="29">[blobs]</tspan></text><path d="M869.612 430.438 844.167 430.438 844.167 421.5 844.833 421.5 844.833 430.104 844.5 429.771 869.612 429.771ZM868.279 426.104 876.279 430.104 868.279 434.104Z" fill="#4472C4"/><text font-family="Calibri,Calibri_MSFontService,sans-serif" font-weight="700" font-size="14" transform="translate(875.458 457)">reference [manifests]</text><path d="M875.53 453.1 770 453.1 770 381.667 772 381.667 772 452.1 771 451.1 875.53 451.1ZM767 383 771 375 775 383Z" fill="#4472C4"/></g></svg>