<svg width="299" height="190" xmlns="http://www.w3.org/2000/svg" xmlns:xlink="http://www.w3.org/1999/xlink" overflow="hidden"><defs><clipPath id="clip0"><rect x="1076" y="290" width="299" height="190"/></clipPath><clipPath id="clip1"><rect x="1079" y="291" width="62" height="42"/></clipPath><clipPath id="clip2"><rect x="1079" y="291" width="62" height="42"/></clipPath><clipPath id="clip3"><rect x="1079" y="281" width="62" height="62"/></clipPath><clipPath id="clip4"><rect x="1136" y="398" width="33" height="33"/></clipPath><clipPath id="clip5"><rect x="1136" y="398" width="33" height="33"/></clipPath><clipPath id="clip6"><rect x="1135" y="398" width="35" height="33"/></clipPath><clipPath id="clip7"><rect x="1135" y="398" width="35" height="33"/></clipPath></defs><g clip-path="url(#clip0)" transform="translate(-1076 -290)"><path d="M1087.47 298.493 1345.47 298.493 1345.47 396.493 1087.47 396.493Z" stroke="#262261" stroke-width="1.33333" stroke-miterlimit="8" fill="#FFFFFF" fill-rule="evenodd"/><text font-family="Consolas,Consolas_MSFontService,sans-serif" font-weight="400" font-size="24" transform="translate(1144.74 321)">net-<tspan font-size="24" x="52.6667" y="0">monitor:</tspan><tspan font-size="24" x="158" y="0">v1</tspan></text><path d="M1132.35 290.992 1145.44 300.436C1145.62 308.886 1145.79 317.335 1145.98 325.785L1088.52 332.992 1077.03 325.039C1076.85 316.424 1077.2 306.815 1077.03 298.199L1132.35 290.992Z" fill="#FFFFFF" fill-rule="evenodd"/><g clip-path="url(#clip1)"><g clip-path="url(#clip2)"><g clip-path="url(#clip3)"><path d="M60.7237 43.3278 60.1416 23.1513 12.3517 29.6181 12.869 50.0534 60.7237 43.3278ZM57.0376 27.4841 57.4256 40.0944 53.9335 40.6118 53.5455 28.0014 57.0376 27.4841ZM48.178 28.7128 48.566 41.3231 45.0739 41.8405 44.6859 29.2301 48.178 28.7128ZM39.3184 29.9415 39.7064 42.5518 36.2143 43.0692 35.8263 30.4588 39.3184 29.9415ZM30.4588 31.2348 30.8468 43.8452 27.3547 44.3625 26.9667 31.6875 30.4588 31.2348ZM21.5993 32.4636 21.9873 45.0739 18.4952 45.5912 18.1072 32.9809 21.5993 32.4636Z" fill="#262261" transform="matrix(1.01346 0 0 1 1079 281.412)"/><path d="M0.905358 41.9051 9.05358 47.79 8.6009 28.9715 0.323342 23.0866Z" fill="#262261" transform="matrix(1.01346 0 0 1 1079 281.412)"/><path d="M58.6543 19.5299 48.566 12.3517 1.16403 19.0125 10.929 25.9967Z" fill="#262261" transform="matrix(1.01346 0 0 1 1079 281.412)"/></g></g></g><text font-family="Calibri,Calibri_MSFontService,sans-serif" font-weight="700" font-size="14" transform="translate(1125.28 369)">layer1 (blob) in [layers]<tspan font-size="14" x="-0.859741" y="22">layer2 (blob) in [layers]</tspan></text><path d="M1118.97 365.132 1110.17 365.132 1110.17 333.5 1110.83 333.5 1110.83 364.798 1110.5 364.465 1118.97 364.465ZM1117.64 360.798 1125.64 364.798 1117.64 368.798Z" fill="#4472C4"/><path d="M1118.11 387.127 1110.17 387.127 1110.17 333.5 1110.83 333.5 1110.83 386.793 1110.5 386.46 1118.11 386.46ZM1116.78 382.793 1124.78 386.793 1116.78 390.793Z" fill="#4472C4"/><text font-family="Calibri,Calibri_MSFontService,sans-serif" font-weight="700" font-size="14" transform="translate(1124.42 348)">config (blob)</text><path d="M1118.11 344.083 1110.17 344.083 1110.17 333.5 1110.83 333.5 1110.83 343.749 1110.5 343.416 1118.11 343.416ZM1116.78 339.749 1124.78 343.749 1116.78 347.749Z" fill="#4472C4"/><path d="M1144.48 405.495 1374.48 405.495 1374.48 478.495 1144.48 478.495Z" stroke="#262261" stroke-width="1.33333" stroke-miterlimit="8" fill="#FFFFFF" fill-rule="evenodd"/><text font-family="Consolas,Consolas_MSFontService,sans-serif" font-weight="400" font-size="14" transform="translate(1172.35 418)">SBoM<tspan font-size="14" x="38.3334" y="0">Document</tspan><tspan font-family="Calibri,Calibri_MSFontService,sans-serif" font-weight="700" font-size="14" x="20.1837" y="23">sbom</tspan><tspan font-family="Calibri,Calibri_MSFontService,sans-serif" font-weight="700" font-size="14" x="55.3505" y="23">[blobs]</tspan></text><path d="M1186.12 437.753 1162 437.753 1162 413 1164 413 1164 436.753 1163 435.753 1186.12 435.753ZM1184.78 432.753 1192.78 436.753 1184.78 440.753Z" fill="#4472C4"/><text font-family="Calibri,Calibri_MSFontService,sans-serif" font-weight="700" font-size="14" transform="translate(1192.61 465)">reference [manifests]</text><g clip-path="url(#clip4)"><g clip-path="url(#clip5)"><g clip-path="url(#clip6)"><g clip-path="url(#clip7)"><path d="M0 0 24.4444 0 24.4444 17.6428C12.2222 17.6428 12.2222 24.365 0 20.5456Z" stroke="#262261" stroke-width="0.814813" stroke-miterlimit="8" fill="#FFFFFF" fill-rule="evenodd" transform="matrix(-1.002 0 0 1 1165.36 403.806)"/><text font-family="Calibri,Calibri_MSFontService,sans-serif" font-weight="400" font-size="19" transform="matrix(0.612337 0 0 0.611111 1141.91 412)">S<tspan font-size="19" x="7.41508" y="4.90909">B</tspan><tspan font-size="19" x="15.6818" y="9.81818">o</tspan><tspan font-size="16" x="22.0859" y="18">M</tspan></text></g></g></g></g><path d="M1192.88 461.667 1094 461.667 1094 402.667 1096 402.667 1096 460.667 1095 459.667 1192.88 459.667ZM1091 404 1095 396 1099 404Z" fill="#4472C4"/></g></svg>