<svg width="245" height="100" xmlns="http://www.w3.org/2000/svg" xmlns:xlink="http://www.w3.org/1999/xlink" overflow="hidden"><defs><clipPath id="clip0"><rect x="423" y="82" width="245" height="100"/></clipPath><clipPath id="clip1"><rect x="424" y="83" width="40" height="40"/></clipPath><clipPath id="clip2"><rect x="424" y="83" width="40" height="40"/></clipPath><clipPath id="clip3"><rect x="422" y="83" width="44" height="40"/></clipPath><clipPath id="clip4"><rect x="422" y="83" width="44" height="40"/></clipPath></defs><g clip-path="url(#clip0)" transform="translate(-423 -82)"><path d="M437.478 95.4945 667.478 95.4945 667.478 178.495 437.478 178.495Z" stroke="#262261" stroke-width="1.33333" stroke-miterlimit="8" fill="#FFFFFF" fill-rule="evenodd"/><g clip-path="url(#clip1)"><g clip-path="url(#clip2)"><g clip-path="url(#clip3)"><g clip-path="url(#clip4)"><path d="M0 0 29.6296 0 29.6296 21.3852C14.8148 21.3852 14.8148 29.5333 0 24.9037Z" stroke="#262261" stroke-width="0.987652" stroke-miterlimit="8" fill="#FFFFFF" fill-rule="evenodd" transform="matrix(-1.00066 0 0 1 459.566 90.037)"/><text font-family="Calibri,Calibri_MSFontService,sans-serif" font-weight="400" font-size="19" transform="matrix(0.741232 0 0 0.740741 431.175 100)">S<tspan font-size="19" x="7.41522" y="5.4">B</tspan><tspan font-size="19" x="15.6819" y="9.45">o</tspan><tspan font-size="16" x="22.0859" y="17.55">M</tspan></text></g></g></g></g><text font-family="Consolas,Consolas_MSFontService,sans-serif" font-weight="400" font-size="19" transform="translate(465.225 113)">SBoM<tspan font-family="Calibri,Calibri_MSFontService,sans-serif" font-weight="700" font-size="14" x="9.54321" y="32">config (blob)</tspan><tspan font-family="Calibri,Calibri_MSFontService,sans-serif" font-weight="700" font-size="14" x="8.68335" y="56">SBoM</tspan><tspan font-family="Calibri,Calibri_MSFontService,sans-serif" font-weight="700" font-size="14" x="42.85" y="56">-</tspan><tspan font-family="Calibri,Calibri_MSFontService,sans-serif" font-weight="700" font-size="14" x="47.1833" y="56">document (blob)</tspan></text><path d="M468.781 141.179 444.167 141.179 444.167 123.5 444.833 123.5 444.833 140.846 444.5 140.513 468.781 140.513ZM467.448 136.846 475.448 140.846 467.448 144.846Z" fill="#4472C4"/><path d="M467.921 165.174 444.167 165.174 444.167 123.5 444.833 123.5 444.833 164.841 444.5 164.508 467.921 164.508ZM466.588 160.841 474.588 164.841 466.588 168.841Z" fill="#4472C4"/></g></svg>