<svg width="243" height="119" xmlns="http://www.w3.org/2000/svg" xmlns:xlink="http://www.w3.org/1999/xlink" overflow="hidden"><defs><clipPath id="clip0"><rect x="700" y="478" width="243" height="119"/></clipPath><clipPath id="clip1"><rect x="703" y="479" width="62" height="43"/></clipPath><clipPath id="clip2"><rect x="703" y="479" width="62" height="43"/></clipPath><clipPath id="clip3"><rect x="703" y="469" width="62" height="63"/></clipPath></defs><g clip-path="url(#clip0)" transform="translate(-700 -478)"><path d="M711.478 486.493 941.478 486.493 941.478 594.493 711.478 594.493Z" stroke="#262261" stroke-width="1.33333" stroke-miterlimit="8" fill="#FFFFFF" fill-rule="evenodd"/><text font-family="Consolas,Consolas_MSFontService,sans-serif" font-weight="400" font-size="24" transform="translate(768.944 509)">wordpress<tspan font-size="24" x="118.5" y="0">:5</tspan></text><path d="M756.349 478.992 769.438 488.436C769.621 496.886 769.793 505.335 769.977 513.785L712.523 520.992 701.031 513.039C700.848 504.424 701.203 494.815 701.031 486.199L756.349 478.992Z" fill="#FFFFFF" fill-rule="evenodd"/><g clip-path="url(#clip1)"><g clip-path="url(#clip2)"><g clip-path="url(#clip3)"><path d="M61.5412 43.9112 60.9514 23.463 12.518 30.0169 13.0423 50.7273 61.5412 43.9112ZM57.8055 27.8541 58.1987 40.6342 54.6596 41.1586 54.2664 28.3784 57.8055 27.8541ZM48.8266 29.0994 49.2199 41.8795 45.6808 42.4038 45.2875 29.6237 48.8266 29.0994ZM39.8478 30.3446 40.241 43.1247 36.7019 43.649 36.3087 30.8689 39.8478 30.3446ZM30.8689 31.6554 31.2622 44.4355 27.723 44.9598 27.3298 32.1142 30.8689 31.6554ZM21.8901 32.9006 22.2833 45.6808 18.7442 46.2051 18.351 33.4249 21.8901 32.9006Z" fill="#262261" transform="matrix(1 0 0 1.01021 703 469.184)"/><path d="M0.917548 42.4693 9.17548 48.4334 8.7167 29.3615 0.327696 23.3975Z" fill="#262261" transform="matrix(1 0 0 1.01021 703 469.184)"/><path d="M59.444 19.7928 49.2199 12.518 1.1797 19.2685 11.0761 26.3467Z" fill="#262261" transform="matrix(1 0 0 1.01021 703 469.184)"/></g></g></g><text font-family="Calibri,Calibri_MSFontService,sans-serif" font-weight="700" font-size="14" transform="translate(749.489 536)">config (blob)<tspan font-size="14" x="-0.859802" y="24">layer1 (blob)</tspan></text><path d="M742.97 532.131 734.167 532.131 734.167 522.5 734.833 522.5 734.833 531.797 734.5 531.464 742.97 531.464ZM741.637 527.797 749.637 531.797 741.637 535.797Z" fill="#4472C4"/><path d="M742.11 556.126 734.167 556.126 734.167 522.5 734.833 522.5 734.833 555.792 734.5 555.459 742.11 555.459ZM740.777 551.792 748.777 555.792 740.777 559.792Z" fill="#4472C4"/><text font-family="Calibri,Calibri_MSFontService,sans-serif" font-weight="700" font-size="14" transform="translate(747.309 584)">layer2 (blob)</text><path d="M740.791 580.617 734.167 580.617 734.167 522.5 734.833 522.5 734.833 580.284 734.5 579.951 740.791 579.951ZM739.458 576.284 747.458 580.284 739.458 584.284Z" fill="#4472C4"/></g></svg>