<svg width="242" height="208" xmlns="http://www.w3.org/2000/svg" xmlns:xlink="http://www.w3.org/1999/xlink" overflow="hidden"><defs><clipPath id="clip0"><rect x="756" y="178" width="242" height="208"/></clipPath><clipPath id="clip1"><rect x="789" y="287" width="20" height="21"/></clipPath><clipPath id="clip2"><rect x="789" y="287" width="20" height="21"/></clipPath><clipPath id="clip3"><rect x="789" y="287" width="20" height="21"/></clipPath><clipPath id="clip4"><rect x="803" y="349" width="21" height="20"/></clipPath><clipPath id="clip5"><rect x="803" y="349" width="21" height="20"/></clipPath><clipPath id="clip6"><rect x="803" y="349" width="21" height="20"/></clipPath><clipPath id="clip7"><rect x="759" y="179" width="62" height="43"/></clipPath><clipPath id="clip8"><rect x="759" y="179" width="62" height="44"/></clipPath><clipPath id="clip9"><rect x="759" y="169" width="62" height="63"/></clipPath><clipPath id="clip10"><rect x="789" y="331" width="20" height="15"/></clipPath><clipPath id="clip11"><rect x="789" y="331" width="20" height="15"/></clipPath><clipPath id="clip12"><rect x="784" y="326" width="25" height="25"/></clipPath><clipPath id="clip13"><rect x="784" y="326" width="25" height="25"/></clipPath><clipPath id="clip14"><rect x="789" y="309" width="21" height="20"/></clipPath><clipPath id="clip15"><rect x="789" y="309" width="21" height="20"/></clipPath><clipPath id="clip16"><rect x="789" y="309" width="21" height="20"/></clipPath></defs><g clip-path="url(#clip0)" transform="translate(-756 -178)"><path d="M789.615 320.172 775.167 320.172 775.167 225.167 775.833 225.167 775.833 319.838 775.5 319.505 789.615 319.505ZM771.5 226.5 775.5 218.5 779.5 226.5Z" fill="#4472C4"/><path d="M767.478 186.487 997.478 186.487 997.478 384.487 767.478 384.487Z" stroke="#262261" stroke-width="1.33333" stroke-miterlimit="8" fill="#FFFFFF" fill-rule="evenodd"/><text font-family="Consolas,Consolas_MSFontService,sans-serif" font-weight="400" font-size="24" transform="translate(824.677 209)">wordpress:5<tspan font-family="Calibri,Calibri_MSFontService,sans-serif" font-weight="700" font-size="14" x="-11.1098" y="93">Docker </tspan><tspan font-family="Calibri,Calibri_MSFontService,sans-serif" font-size="14" x="32.8902" y="93">community signature</tspan></text><g clip-path="url(#clip1)"><g clip-path="url(#clip2)"><g clip-path="url(#clip3)"><path d="M12.5793 10.4017 10.9937 9.00634 5.96195 15.2008 7.56871 16.5751Z" fill="#262261" transform="matrix(1 0 0 1.05 789 287)"/><path d="M6.0888 16.9767 5.24313 16.3002 4.77801 18.351 6.68076 17.4841Z" fill="#262261" transform="matrix(1 0 0 1.05 789 287)"/><path d="M17.4841 1.0148 19.0909 2.38901 19.9366 1.35307 18.2875 0.0211417Z" fill="#262261" transform="matrix(1 0 0 1.05 789 287)"/><path d="M14.334 10.1057 15.3277 10.9091 17.8436 7.82241C18.6892 6.8499 19.0909 5.62368 18.9006 4.60888 18.8161 4.14376 18.6047 3.74207 18.3087 3.40381L16.7019 2.00846 11.7759 8.03383 13.3827 9.42918 17.463 4.39746C17.5476 4.52431 17.611 4.6723 17.6321 4.84144 17.759 5.47569 17.4419 6.32135 16.871 6.99789L14.334 10.1057Z" fill="#262261" transform="matrix(1 0 0 1.05 789 287)"/><path d="M1.07822 16.5116C1.12051 16.4059 1.16279 16.3002 1.22622 16.1945 1.35307 15.9831 1.50106 15.814 1.69133 15.6448 2.05074 15.3066 2.51586 15.0317 3.00211 14.778 3.48837 14.5243 3.99577 14.2918 4.52431 14.0381 4.77801 13.9112 5.05285 13.7632 5.3277 13.5729 5.47569 13.4884 5.60254 13.3827 5.75053 13.2347 5.89852 13.0867 6.04651 12.9175 6.13108 12.6427 6.23679 12.389 6.21564 12.0507 6.13108 11.8182 6.04651 11.5645 5.87738 11.3742 5.72939 11.2262 5.41226 10.9514 5.11628 10.8034 4.84144 10.6554 4.29175 10.3805 3.76321 10.2114 3.27696 9.97886 2.81184 9.7463 2.41015 9.4926 2.17759 9.15433 1.94503 8.83721 1.86047 8.41438 1.92389 7.94926 1.98731 7.463 2.13531 6.99789 2.38901 6.59619 2.91755 5.79281 3.91121 5.26427 4.96829 4.96829 5.49683 4.8203 6.04651 4.71459 6.61734 4.65116 6.89218 4.60888 7.18816 4.58774 7.463 4.5666 7.73784 4.54545 8.03383 4.52431 8.32981 4.52431 7.18816 4.22833 6.00423 4.16491 4.8203 4.3129 4.22833 4.39746 3.63636 4.54545 3.06554 4.79915 2.49471 5.05285 1.96617 5.4334 1.54334 5.96195 1.33192 6.21564 1.16279 6.51163 1.03594 6.80761 0.909091 7.12474 0.824524 7.42072 0.761099 7.75899 0.697674 8.09725 0.697674 8.43552 0.739958 8.79493 0.803383 9.15433 0.930233 9.51374 1.14165 9.83087 1.35307 10.148 1.60677 10.3805 1.88161 10.592 2.15645 10.8034 2.43129 10.9514 2.70613 11.0994 3.25581 11.3742 3.8055 11.5856 4.29175 11.797 4.52431 11.9027 4.73573 12.0296 4.86258 12.1353 4.926 12.1776 4.94715 12.2199 4.94715 12.241 4.94715 12.2622 4.94715 12.241 4.94715 12.241 4.94715 12.241 4.926 12.3044 4.86258 12.3679 4.79915 12.4313 4.71459 12.4947 4.63002 12.5793 4.43975 12.7273 4.20719 12.8541 3.97463 13.0021 3.48837 13.277 2.98097 13.5518 2.47357 13.8478 1.96617 14.1649 1.45877 14.5243 1.03594 15.0106 0.824524 15.2431 0.63425 15.5391 0.5074 15.8351 0.443975 15.9831 0.38055 16.1522 0.359408 16.3214 0.317125 16.4905 0.317125 16.6385 0.295983 16.7865 0.274841 17.1036 0.274841 17.4207 0.38055 17.759 0.465116 18.0761 0.655391 18.3932 0.930233 18.6047 1.20507 18.8161 1.5222 18.9218 1.81818 18.9641 2.13531 19.0063 2.43129 19.0063 2.72727 18.9641 3.31924 18.9006 3.86892 18.7315 4.39746 18.5201 3.82664 18.6258 3.25581 18.6892 2.70613 18.6681 2.43129 18.6469 2.15645 18.6258 1.90275 18.5412 1.64905 18.4778 1.41649 18.351 1.2685 18.1818 0.951374 17.8647 0.909091 17.3573 1.0148 16.8499 1.0148 16.7653 1.05708 16.6173 1.07822 16.5116Z" fill="#262261" transform="matrix(1 0 0 1.05 789 287)"/></g></g></g><text font-family="Calibri,Calibri_MSFontService,sans-serif" font-weight="700" font-size="14" transform="translate(823.926 363)">Docker <tspan font-weight="400" font-size="14" x="44" y="0">community signature</tspan></text><g clip-path="url(#clip4)"><g clip-path="url(#clip5)"><g clip-path="url(#clip6)"><path d="M12.5793 10.4017 10.9937 9.00634 5.96195 15.2008 7.56871 16.5751Z" fill="#262261" transform="matrix(1.05 0 0 1 803 349)"/><path d="M6.0888 16.9767 5.24313 16.3002 4.77801 18.351 6.68076 17.4841Z" fill="#262261" transform="matrix(1.05 0 0 1 803 349)"/><path d="M17.4841 1.0148 19.0909 2.38901 19.9366 1.35307 18.2875 0.0211417Z" fill="#262261" transform="matrix(1.05 0 0 1 803 349)"/><path d="M14.334 10.1057 15.3277 10.9091 17.8436 7.82241C18.6892 6.8499 19.0909 5.62368 18.9006 4.60888 18.8161 4.14376 18.6047 3.74207 18.3087 3.40381L16.7019 2.00846 11.7759 8.03383 13.3827 9.42918 17.463 4.39746C17.5476 4.52431 17.611 4.6723 17.6321 4.84144 17.759 5.47569 17.4419 6.32135 16.871 6.99789L14.334 10.1057Z" fill="#262261" transform="matrix(1.05 0 0 1 803 349)"/><path d="M1.07822 16.5116C1.12051 16.4059 1.16279 16.3002 1.22622 16.1945 1.35307 15.9831 1.50106 15.814 1.69133 15.6448 2.05074 15.3066 2.51586 15.0317 3.00211 14.778 3.48837 14.5243 3.99577 14.2918 4.52431 14.0381 4.77801 13.9112 5.05285 13.7632 5.3277 13.5729 5.47569 13.4884 5.60254 13.3827 5.75053 13.2347 5.89852 13.0867 6.04651 12.9175 6.13108 12.6427 6.23679 12.389 6.21564 12.0507 6.13108 11.8182 6.04651 11.5645 5.87738 11.3742 5.72939 11.2262 5.41226 10.9514 5.11628 10.8034 4.84144 10.6554 4.29175 10.3805 3.76321 10.2114 3.27696 9.97886 2.81184 9.7463 2.41015 9.4926 2.17759 9.15433 1.94503 8.83721 1.86047 8.41438 1.92389 7.94926 1.98731 7.463 2.13531 6.99789 2.38901 6.59619 2.91755 5.79281 3.91121 5.26427 4.96829 4.96829 5.49683 4.8203 6.04651 4.71459 6.61734 4.65116 6.89218 4.60888 7.18816 4.58774 7.463 4.5666 7.73784 4.54545 8.03383 4.52431 8.32981 4.52431 7.18816 4.22833 6.00423 4.16491 4.8203 4.3129 4.22833 4.39746 3.63636 4.54545 3.06554 4.79915 2.49471 5.05285 1.96617 5.4334 1.54334 5.96195 1.33192 6.21564 1.16279 6.51163 1.03594 6.80761 0.909091 7.12474 0.824524 7.42072 0.761099 7.75899 0.697674 8.09725 0.697674 8.43552 0.739958 8.79493 0.803383 9.15433 0.930233 9.51374 1.14165 9.83087 1.35307 10.148 1.60677 10.3805 1.88161 10.592 2.15645 10.8034 2.43129 10.9514 2.70613 11.0994 3.25581 11.3742 3.8055 11.5856 4.29175 11.797 4.52431 11.9027 4.73573 12.0296 4.86258 12.1353 4.926 12.1776 4.94715 12.2199 4.94715 12.241 4.94715 12.2622 4.94715 12.241 4.94715 12.241 4.94715 12.241 4.926 12.3044 4.86258 12.3679 4.79915 12.4313 4.71459 12.4947 4.63002 12.5793 4.43975 12.7273 4.20719 12.8541 3.97463 13.0021 3.48837 13.277 2.98097 13.5518 2.47357 13.8478 1.96617 14.1649 1.45877 14.5243 1.03594 15.0106 0.824524 15.2431 0.63425 15.5391 0.5074 15.8351 0.443975 15.9831 0.38055 16.1522 0.359408 16.3214 0.317125 16.4905 0.317125 16.6385 0.295983 16.7865 0.274841 17.1036 0.274841 17.4207 0.38055 17.759 0.465116 18.0761 0.655391 18.3932 0.930233 18.6047 1.20507 18.8161 1.5222 18.9218 1.81818 18.9641 2.13531 19.0063 2.43129 19.0063 2.72727 18.9641 3.31924 18.9006 3.86892 18.7315 4.39746 18.5201 3.82664 18.6258 3.25581 18.6892 2.70613 18.6681 2.43129 18.6469 2.15645 18.6258 1.90275 18.5412 1.64905 18.4778 1.41649 18.351 1.2685 18.1818 0.951374 17.8647 0.909091 17.3573 1.0148 16.8499 1.0148 16.7653 1.05708 16.6173 1.07822 16.5116Z" fill="#262261" transform="matrix(1.05 0 0 1 803 349)"/></g></g></g><path d="M812.349 178.992 825.438 188.436C825.621 196.886 825.793 205.335 825.977 213.785L768.523 220.992 757.031 213.039C756.848 204.424 757.203 194.815 757.031 186.199L812.349 178.992Z" fill="#FFFFFF" fill-rule="evenodd"/><g clip-path="url(#clip7)"><g clip-path="url(#clip8)"><g clip-path="url(#clip9)"><path d="M61.5412 43.9112 60.9514 23.463 12.518 30.0169 13.0423 50.7273 61.5412 43.9112ZM57.8055 27.8541 58.1987 40.6342 54.6596 41.1586 54.2664 28.3784 57.8055 27.8541ZM48.8266 29.0994 49.2199 41.8795 45.6808 42.4038 45.2875 29.6237 48.8266 29.0994ZM39.8478 30.3446 40.241 43.1247 36.7019 43.649 36.3087 30.8689 39.8478 30.3446ZM30.8689 31.6554 31.2622 44.4355 27.723 44.9598 27.3298 32.1142 30.8689 31.6554ZM21.8901 32.9006 22.2833 45.6808 18.7442 46.2051 18.351 33.4249 21.8901 32.9006Z" fill="#262261" transform="matrix(1 0 0 1.01021 759 169.184)"/><path d="M0.917548 42.4693 9.17548 48.4334 8.7167 29.3615 0.327696 23.3975Z" fill="#262261" transform="matrix(1 0 0 1.01021 759 169.184)"/><path d="M59.444 19.7928 49.2199 12.518 1.1797 19.2685 11.0761 26.3467Z" fill="#262261" transform="matrix(1 0 0 1.01021 759 169.184)"/></g></g></g><path d="M789.334 298.183 773.167 298.183 773.167 229.167 773.833 229.167 773.833 297.849 773.5 297.516 789.334 297.516ZM769.5 230.5 773.5 222.5 777.5 230.5Z" fill="#4472C4"/><path d="M803.987 359.96 799.167 359.96 799.167 353.167 799.833 353.167 799.833 359.627 799.5 359.293 803.987 359.293ZM795.5 354.5 799.5 346.5 803.5 354.5Z" fill="#4472C4"/><path d="M789.334 339.244 773.167 339.244 773.167 229.167 773.833 229.167 773.833 338.911 773.5 338.577 789.334 338.577ZM769.5 230.5 773.5 222.5 777.5 230.5Z" fill="#4472C4"/><text font-family="Calibri,Calibri_MSFontService,sans-serif" font-weight="700" font-size="14" transform="translate(805.221 258)">layer1 (blob)<tspan font-size="14" x="-0.859863" y="24">layer2 (blob)</tspan></text><path d="M798.97 254.132 790.167 254.132 790.167 222.5 790.833 222.5 790.833 253.798 790.5 253.465 798.97 253.465ZM797.637 249.798 805.637 253.798 797.637 257.798Z" fill="#4472C4"/><path d="M798.11 278.127 790.167 278.127 790.167 222.5 790.833 222.5 790.833 277.793 790.5 277.46 798.11 277.46ZM796.777 273.793 804.777 277.793 796.777 281.793Z" fill="#4472C4"/><text font-family="Calibri,Calibri_MSFontService,sans-serif" font-weight="700" font-size="14" transform="translate(812.942 343)">SBoM<tspan font-weight="400" font-size="14" x="37.3334" y="0">Document</tspan></text><g clip-path="url(#clip10)"><g clip-path="url(#clip11)"><g clip-path="url(#clip12)"><g clip-path="url(#clip13)"><text font-family="Calibri,Calibri_MSFontService,sans-serif" font-weight="400" font-size="8" transform="matrix(1.03018 0 0 1.05123 790.241 337)">S<tspan font-size="8" x="3.01455" y="1.90253">B</tspan><tspan font-size="8" x="6.23107" y="3.80506">o</tspan><tspan font-size="7" x="7.98111" y="6.65885">M</tspan></text></g></g></g></g><text font-family="Calibri,Calibri_MSFontService,sans-serif" font-weight="700" font-size="14" transform="translate(813.203 324)">ACME Rockets <tspan font-weight="400" font-size="14" x="86.5" y="0">signature</tspan></text><g clip-path="url(#clip14)"><g clip-path="url(#clip15)"><g clip-path="url(#clip16)"><path d="M12.5793 10.4017 10.9937 9.00634 5.96195 15.2008 7.56871 16.5751Z" fill="#262261" transform="matrix(1.05 0 0 1 789 309)"/><path d="M6.0888 16.9767 5.24313 16.3002 4.77801 18.351 6.68076 17.4841Z" fill="#262261" transform="matrix(1.05 0 0 1 789 309)"/><path d="M17.4841 1.0148 19.0909 2.38901 19.9366 1.35307 18.2875 0.0211417Z" fill="#262261" transform="matrix(1.05 0 0 1 789 309)"/><path d="M14.334 10.1057 15.3277 10.9091 17.8436 7.82241C18.6892 6.8499 19.0909 5.62368 18.9006 4.60888 18.8161 4.14376 18.6047 3.74207 18.3087 3.40381L16.7019 2.00846 11.7759 8.03383 13.3827 9.42918 17.463 4.39746C17.5476 4.52431 17.611 4.6723 17.6321 4.84144 17.759 5.47569 17.4419 6.32135 16.871 6.99789L14.334 10.1057Z" fill="#262261" transform="matrix(1.05 0 0 1 789 309)"/><path d="M1.07822 16.5116C1.12051 16.4059 1.16279 16.3002 1.22622 16.1945 1.35307 15.9831 1.50106 15.814 1.69133 15.6448 2.05074 15.3066 2.51586 15.0317 3.00211 14.778 3.48837 14.5243 3.99577 14.2918 4.52431 14.0381 4.77801 13.9112 5.05285 13.7632 5.3277 13.5729 5.47569 13.4884 5.60254 13.3827 5.75053 13.2347 5.89852 13.0867 6.04651 12.9175 6.13108 12.6427 6.23679 12.389 6.21564 12.0507 6.13108 11.8182 6.04651 11.5645 5.87738 11.3742 5.72939 11.2262 5.41226 10.9514 5.11628 10.8034 4.84144 10.6554 4.29175 10.3805 3.76321 10.2114 3.27696 9.97886 2.81184 9.7463 2.41015 9.4926 2.17759 9.15433 1.94503 8.83721 1.86047 8.41438 1.92389 7.94926 1.98731 7.463 2.13531 6.99789 2.38901 6.59619 2.91755 5.79281 3.91121 5.26427 4.96829 4.96829 5.49683 4.8203 6.04651 4.71459 6.61734 4.65116 6.89218 4.60888 7.18816 4.58774 7.463 4.5666 7.73784 4.54545 8.03383 4.52431 8.32981 4.52431 7.18816 4.22833 6.00423 4.16491 4.8203 4.3129 4.22833 4.39746 3.63636 4.54545 3.06554 4.79915 2.49471 5.05285 1.96617 5.4334 1.54334 5.96195 1.33192 6.21564 1.16279 6.51163 1.03594 6.80761 0.909091 7.12474 0.824524 7.42072 0.761099 7.75899 0.697674 8.09725 0.697674 8.43552 0.739958 8.79493 0.803383 9.15433 0.930233 9.51374 1.14165 9.83087 1.35307 10.148 1.60677 10.3805 1.88161 10.592 2.15645 10.8034 2.43129 10.9514 2.70613 11.0994 3.25581 11.3742 3.8055 11.5856 4.29175 11.797 4.52431 11.9027 4.73573 12.0296 4.86258 12.1353 4.926 12.1776 4.94715 12.2199 4.94715 12.241 4.94715 12.2622 4.94715 12.241 4.94715 12.241 4.94715 12.241 4.926 12.3044 4.86258 12.3679 4.79915 12.4313 4.71459 12.4947 4.63002 12.5793 4.43975 12.7273 4.20719 12.8541 3.97463 13.0021 3.48837 13.277 2.98097 13.5518 2.47357 13.8478 1.96617 14.1649 1.45877 14.5243 1.03594 15.0106 0.824524 15.2431 0.63425 15.5391 0.5074 15.8351 0.443975 15.9831 0.38055 16.1522 0.359408 16.3214 0.317125 16.4905 0.317125 16.6385 0.295983 16.7865 0.274841 17.1036 0.274841 17.4207 0.38055 17.759 0.465116 18.0761 0.655391 18.3932 0.930233 18.6047 1.20507 18.8161 1.5222 18.9218 1.81818 18.9641 2.13531 19.0063 2.43129 19.0063 2.72727 18.9641 3.31924 18.9006 3.86892 18.7315 4.39746 18.5201 3.82664 18.6258 3.25581 18.6892 2.70613 18.6681 2.43129 18.6469 2.15645 18.6258 1.90275 18.5412 1.64905 18.4778 1.41649 18.351 1.2685 18.1818 0.951374 17.8647 0.909091 17.3573 1.0148 16.8499 1.0148 16.7653 1.05708 16.6173 1.07822 16.5116Z" fill="#262261" transform="matrix(1.05 0 0 1 789 309)"/></g></g></g><path d="M789.594 320.068 773.167 320.068 773.167 229.167 773.833 229.167 773.833 319.735 773.5 319.401 789.594 319.401ZM769.5 230.5 773.5 222.5 777.5 230.5Z" fill="#4472C4"/><text font-family="Calibri,Calibri_MSFontService,sans-serif" font-weight="700" font-size="14" transform="translate(804.362 237)">config (blob)</text><path d="M798.11 233.083 790.167 233.083 790.167 222.5 790.833 222.5 790.833 232.749 790.5 232.416 798.11 232.416ZM796.777 228.749 804.777 232.749 796.777 236.749Z" fill="#4472C4"/></g></svg>